<svg
  xmlns="http://www.w3.org/2000/svg"
  viewBox="0 0 64 64"
  role="img"
  aria-labelledby="title"
>
  <title>Pinball Browser favicon</title>
  <rect x="4" y="4" width="56" height="56" rx="14" fill="#fed41d" />
  <path
    d="M16 15c7-3 25-3 32 0"
    fill="none"
    stroke="#2f6db2"
    stroke-linecap="round"
    stroke-width="4"
  />
  <circle cx="21" cy="23" r="6" fill="#f26ca7" stroke="#fff7d6" stroke-width="2" />
  <circle cx="43" cy="23" r="6" fill="#70d1f4" stroke="#fff7d6" stroke-width="2" />
  <circle cx="32" cy="32" r="7" fill="#fffdf7" stroke="#22304a" stroke-width="2.5" />
  <path
    d="M18 47c3-5 8-7 13-7l-4 10c-4 0-7-1-9-3Z"
    fill="#e94f37"
    stroke="#fff7d6"
    stroke-linejoin="round"
    stroke-width="2"
  />
  <path
    d="M46 47c-3-5-8-7-13-7l4 10c4 0 7-1 9-3Z"
    fill="#e94f37"
    stroke="#fff7d6"
    stroke-linejoin="round"
    stroke-width="2"
  />
  <path
    d="m49 12 1.7 3.6 4 .6-2.9 2.8.7 4-3.5-1.9-3.6 1.9.7-4-2.9-2.8 4-.6Z"
    fill="#fff7d6"
    stroke="#2f6db2"
    stroke-linejoin="round"
    stroke-width="1.4"
  />
</svg>
